<mxfile host="app.diagrams.net" modified="2024-06-14T17:20:54.100Z" agent="Mozilla/5.0 (Windows NT 10.0; Win64; x64; rv:127.0) Gecko/20100101 Firefox/127.0" etag="RaYj0KiGWBYOi8nNLaC2" version="24.5.4" type="github">
  <diagram name="Page-1" id="wkQGDYJjsccqzzj5Fohd">
    <mxGraphModel dx="1283" dy="628" grid="1" gridSize="10" guides="1" tooltips="1" connect="1" arrows="1" fold="1" page="1" pageScale="1" pageWidth="1100" pageHeight="850" math="0" shadow="0">
      <root>
        <mxCell id="0" />
        <mxCell id="1" parent="0" />
        <mxCell id="8OKDDaI05LE1G_95-_yh-1" value="Migrating MyCap Classic to new MyCap App" style="shape=table;childLayout=tableLayout;startSize=50;collapsible=0;recursiveResize=0;expand=0;fontSize=16;fontStyle=1" parent="1" vertex="1">
          <mxGeometry x="40" y="80" width="1040" height="353" as="geometry" />
        </mxCell>
        <mxCell id="8OKDDaI05LE1G_95-_yh-2" value="REDCap Admin" style="shape=tableRow;horizontal=0;swimlaneHead=0;swimlaneBody=0;top=0;left=0;strokeColor=inherit;bottom=0;right=0;dropTarget=0;fontStyle=0;fillColor=none;points=[[0,0.5],[1,0.5]];portConstraint=eastwest;startSize=40;collapsible=0;recursiveResize=0;expand=0;fontSize=16;" parent="8OKDDaI05LE1G_95-_yh-1" vertex="1">
          <mxGeometry y="50" width="1040" height="170" as="geometry" />
        </mxCell>
        <mxCell id="8OKDDaI05LE1G_95-_yh-43" value="MyCap Changes Announcement" style="swimlane;swimlaneHead=0;swimlaneBody=0;fontStyle=0;strokeColor=inherit;connectable=0;fillColor=none;startSize=40;collapsible=0;recursiveResize=0;expand=0;fontSize=16;" parent="8OKDDaI05LE1G_95-_yh-2" vertex="1">
          <mxGeometry x="40" width="280" height="170" as="geometry">
            <mxRectangle width="280" height="170" as="alternateBounds" />
          </mxGeometry>
        </mxCell>
        <mxCell id="8OKDDaI05LE1G_95-_yh-14" value="Start" style="strokeWidth=2;html=1;shape=mxgraph.flowchart.terminator;whiteSpace=wrap;fillColor=#dae8fc;strokeColor=#6c8ebf;" parent="8OKDDaI05LE1G_95-_yh-43" vertex="1">
          <mxGeometry x="28" y="65" width="68.5" height="40" as="geometry" />
        </mxCell>
        <mxCell id="8OKDDaI05LE1G_95-_yh-37" value="" style="endArrow=classic;html=1;rounded=0;entryX=0;entryY=0.5;entryDx=0;entryDy=0;" parent="8OKDDaI05LE1G_95-_yh-43" source="8OKDDaI05LE1G_95-_yh-14" target="8OKDDaI05LE1G_95-_yh-19" edge="1">
          <mxGeometry width="50" height="50" relative="1" as="geometry">
            <mxPoint x="246.5" y="180" as="sourcePoint" />
            <mxPoint x="296.5" y="130" as="targetPoint" />
          </mxGeometry>
        </mxCell>
        <mxCell id="8OKDDaI05LE1G_95-_yh-19" value="Notify users " style="rounded=1;whiteSpace=wrap;html=1;absoluteArcSize=1;arcSize=14;strokeWidth=2;fillColor=#fff2cc;strokeColor=#d6b656;" parent="8OKDDaI05LE1G_95-_yh-43" vertex="1">
          <mxGeometry x="128.25" y="60" width="83.5" height="50" as="geometry" />
        </mxCell>
        <mxCell id="8OKDDaI05LE1G_95-_yh-3" value="Training" style="swimlane;swimlaneHead=0;swimlaneBody=0;fontStyle=0;strokeColor=inherit;connectable=0;fillColor=none;startSize=40;collapsible=0;recursiveResize=0;expand=0;fontSize=16;" parent="8OKDDaI05LE1G_95-_yh-2" vertex="1">
          <mxGeometry x="320" width="170" height="170" as="geometry">
            <mxRectangle width="170" height="170" as="alternateBounds" />
          </mxGeometry>
        </mxCell>
        <mxCell id="8OKDDaI05LE1G_95-_yh-49" value="Conduct Training" style="rounded=1;whiteSpace=wrap;html=1;absoluteArcSize=1;arcSize=14;strokeWidth=2;fillColor=#fff2cc;strokeColor=#d6b656;" parent="8OKDDaI05LE1G_95-_yh-3" vertex="1">
          <mxGeometry x="50" y="60" width="90" height="50" as="geometry" />
        </mxCell>
        <mxCell id="8OKDDaI05LE1G_95-_yh-4" value="Project Migration" style="swimlane;swimlaneHead=0;swimlaneBody=0;fontStyle=0;strokeColor=inherit;connectable=0;fillColor=none;startSize=40;collapsible=0;recursiveResize=0;expand=0;fontSize=16;" parent="8OKDDaI05LE1G_95-_yh-2" vertex="1">
          <mxGeometry x="490" width="170" height="170" as="geometry">
            <mxRectangle width="170" height="170" as="alternateBounds" />
          </mxGeometry>
        </mxCell>
        <mxCell id="8OKDDaI05LE1G_95-_yh-29" value="Migrate all MyCap EM to Built-in" style="rounded=1;whiteSpace=wrap;html=1;absoluteArcSize=1;arcSize=14;strokeWidth=2;fillColor=#fff2cc;strokeColor=#d6b656;" parent="8OKDDaI05LE1G_95-_yh-4" vertex="1">
          <mxGeometry x="40" y="60" width="100" height="50" as="geometry" />
        </mxCell>
        <mxCell id="8OKDDaI05LE1G_95-_yh-5" value="Participant Migration" style="swimlane;swimlaneHead=0;swimlaneBody=0;fontStyle=0;strokeColor=inherit;connectable=0;fillColor=none;startSize=40;collapsible=0;recursiveResize=0;expand=0;fontSize=16;" parent="8OKDDaI05LE1G_95-_yh-2" vertex="1">
          <mxGeometry x="660" width="380" height="170" as="geometry">
            <mxRectangle width="380" height="170" as="alternateBounds" />
          </mxGeometry>
        </mxCell>
        <mxCell id="8OKDDaI05LE1G_95-_yh-32" value="" style="endArrow=classic;html=1;rounded=0;exitX=1;exitY=0.5;exitDx=0;exitDy=0;entryX=0;entryY=0.5;entryDx=0;entryDy=0;" parent="8OKDDaI05LE1G_95-_yh-2" source="8OKDDaI05LE1G_95-_yh-19" target="8OKDDaI05LE1G_95-_yh-49" edge="1">
          <mxGeometry width="50" height="50" relative="1" as="geometry">
            <mxPoint x="258" y="180" as="sourcePoint" />
            <mxPoint x="358" y="85" as="targetPoint" />
          </mxGeometry>
        </mxCell>
        <mxCell id="8OKDDaI05LE1G_95-_yh-51" value="" style="endArrow=classic;html=1;rounded=0;exitX=1;exitY=0.5;exitDx=0;exitDy=0;entryX=0;entryY=0.5;entryDx=0;entryDy=0;" parent="8OKDDaI05LE1G_95-_yh-2" source="8OKDDaI05LE1G_95-_yh-49" target="8OKDDaI05LE1G_95-_yh-29" edge="1">
          <mxGeometry width="50" height="50" relative="1" as="geometry">
            <mxPoint x="500" y="160" as="sourcePoint" />
            <mxPoint x="550" y="110" as="targetPoint" />
          </mxGeometry>
        </mxCell>
        <mxCell id="8OKDDaI05LE1G_95-_yh-6" value="REDCap User" style="shape=tableRow;horizontal=0;swimlaneHead=0;swimlaneBody=0;top=0;left=0;strokeColor=inherit;bottom=0;right=0;dropTarget=0;fontStyle=0;fillColor=none;points=[[0,0.5],[1,0.5]];portConstraint=eastwest;startSize=40;collapsible=0;recursiveResize=0;expand=0;fontSize=16;" parent="8OKDDaI05LE1G_95-_yh-1" vertex="1">
          <mxGeometry y="220" width="1040" height="133" as="geometry" />
        </mxCell>
        <mxCell id="8OKDDaI05LE1G_95-_yh-44" style="swimlane;swimlaneHead=0;swimlaneBody=0;fontStyle=0;connectable=0;strokeColor=inherit;fillColor=none;startSize=0;collapsible=0;recursiveResize=0;expand=0;fontSize=16;" parent="8OKDDaI05LE1G_95-_yh-6" vertex="1">
          <mxGeometry x="40" width="280" height="133" as="geometry">
            <mxRectangle width="280" height="133" as="alternateBounds" />
          </mxGeometry>
        </mxCell>
        <mxCell id="8OKDDaI05LE1G_95-_yh-15" value="Has MyCap-project" style="strokeWidth=2;html=1;shape=mxgraph.flowchart.decision;whiteSpace=wrap;fillColor=#dae8fc;strokeColor=#6c8ebf;" parent="8OKDDaI05LE1G_95-_yh-44" vertex="1">
          <mxGeometry x="120" y="19.75" width="100" height="100.5" as="geometry" />
        </mxCell>
        <mxCell id="8OKDDaI05LE1G_95-_yh-23" value="No action required" style="strokeWidth=2;html=1;shape=mxgraph.flowchart.terminator;whiteSpace=wrap;fillColor=#dae8fc;strokeColor=#6c8ebf;" parent="8OKDDaI05LE1G_95-_yh-44" vertex="1">
          <mxGeometry x="28" y="50" width="70" height="40" as="geometry" />
        </mxCell>
        <mxCell id="8OKDDaI05LE1G_95-_yh-25" value="" style="endArrow=classic;html=1;rounded=0;exitX=0;exitY=0.5;exitDx=0;exitDy=0;exitPerimeter=0;" parent="8OKDDaI05LE1G_95-_yh-44" source="8OKDDaI05LE1G_95-_yh-15" edge="1">
          <mxGeometry width="50" height="50" relative="1" as="geometry">
            <mxPoint x="518" y="60" as="sourcePoint" />
            <mxPoint x="98" y="70" as="targetPoint" />
          </mxGeometry>
        </mxCell>
        <mxCell id="8OKDDaI05LE1G_95-_yh-31" value="No" style="text;html=1;align=center;verticalAlign=middle;resizable=0;points=[];autosize=1;strokeColor=none;fillColor=none;fontStyle=1" parent="8OKDDaI05LE1G_95-_yh-44" vertex="1">
          <mxGeometry x="90" y="43" width="40" height="30" as="geometry" />
        </mxCell>
        <mxCell id="8OKDDaI05LE1G_95-_yh-30" value="Yes" style="text;html=1;align=center;verticalAlign=middle;resizable=0;points=[];autosize=1;strokeColor=none;fillColor=none;fontStyle=1" parent="8OKDDaI05LE1G_95-_yh-44" vertex="1">
          <mxGeometry x="220" y="43" width="40" height="30" as="geometry" />
        </mxCell>
        <mxCell id="8OKDDaI05LE1G_95-_yh-7" value="" style="swimlane;swimlaneHead=0;swimlaneBody=0;fontStyle=0;connectable=0;strokeColor=inherit;fillColor=none;startSize=0;collapsible=0;recursiveResize=0;expand=0;fontSize=16;" parent="8OKDDaI05LE1G_95-_yh-6" vertex="1">
          <mxGeometry x="320" width="170" height="133" as="geometry">
            <mxRectangle width="170" height="133" as="alternateBounds" />
          </mxGeometry>
        </mxCell>
        <mxCell id="8OKDDaI05LE1G_95-_yh-24" value="Attend&lt;br&gt;Training" style="rounded=1;whiteSpace=wrap;html=1;absoluteArcSize=1;arcSize=14;strokeWidth=2;fillColor=#fff2cc;strokeColor=#d6b656;" parent="8OKDDaI05LE1G_95-_yh-7" vertex="1">
          <mxGeometry x="50" y="45" width="90" height="50" as="geometry" />
        </mxCell>
        <mxCell id="8OKDDaI05LE1G_95-_yh-8" value="" style="swimlane;swimlaneHead=0;swimlaneBody=0;fontStyle=0;connectable=0;strokeColor=inherit;fillColor=none;startSize=0;collapsible=0;recursiveResize=0;expand=0;fontSize=16;" parent="8OKDDaI05LE1G_95-_yh-6" vertex="1">
          <mxGeometry x="490" width="170" height="133" as="geometry">
            <mxRectangle width="170" height="133" as="alternateBounds" />
          </mxGeometry>
        </mxCell>
        <mxCell id="8OKDDaI05LE1G_95-_yh-9" value="" style="swimlane;swimlaneHead=0;swimlaneBody=0;fontStyle=0;connectable=0;strokeColor=#d6b656;fillColor=#fff2cc;startSize=0;collapsible=0;recursiveResize=0;expand=0;fontSize=16;" parent="8OKDDaI05LE1G_95-_yh-6" vertex="1">
          <mxGeometry x="660" width="380" height="133" as="geometry">
            <mxRectangle width="380" height="133" as="alternateBounds" />
          </mxGeometry>
        </mxCell>
        <mxCell id="8OKDDaI05LE1G_95-_yh-33" value="Identify participants" style="rounded=1;whiteSpace=wrap;html=1;absoluteArcSize=1;arcSize=14;strokeWidth=2;fillColor=#fff2cc;strokeColor=#d6b656;" parent="8OKDDaI05LE1G_95-_yh-9" vertex="1">
          <mxGeometry x="20" y="45" width="80" height="50" as="geometry" />
        </mxCell>
        <mxCell id="8OKDDaI05LE1G_95-_yh-41" style="edgeStyle=orthogonalEdgeStyle;rounded=0;orthogonalLoop=1;jettySize=auto;html=1;exitX=1;exitY=0.5;exitDx=0;exitDy=0;entryX=0;entryY=0.5;entryDx=0;entryDy=0;" parent="8OKDDaI05LE1G_95-_yh-9" source="8OKDDaI05LE1G_95-_yh-35" target="8OKDDaI05LE1G_95-_yh-39" edge="1">
          <mxGeometry relative="1" as="geometry" />
        </mxCell>
        <mxCell id="8OKDDaI05LE1G_95-_yh-35" value="Configure Alerts with instructions" style="rounded=1;whiteSpace=wrap;html=1;absoluteArcSize=1;arcSize=14;strokeWidth=2;fillColor=#fff2cc;strokeColor=#d6b656;" parent="8OKDDaI05LE1G_95-_yh-9" vertex="1">
          <mxGeometry x="130" y="45" width="90.5" height="50" as="geometry" />
        </mxCell>
        <mxCell id="8OKDDaI05LE1G_95-_yh-39" value="Send notification&lt;br&gt; to Participants" style="rounded=1;whiteSpace=wrap;html=1;absoluteArcSize=1;arcSize=14;strokeWidth=2;fillColor=#fff2cc;strokeColor=#d6b656;" parent="8OKDDaI05LE1G_95-_yh-9" vertex="1">
          <mxGeometry x="253.5" y="45" width="106.5" height="50" as="geometry" />
        </mxCell>
        <mxCell id="8OKDDaI05LE1G_95-_yh-40" value="" style="endArrow=classic;html=1;rounded=0;exitX=1;exitY=0.5;exitDx=0;exitDy=0;entryX=0;entryY=0.5;entryDx=0;entryDy=0;" parent="8OKDDaI05LE1G_95-_yh-9" source="8OKDDaI05LE1G_95-_yh-33" target="8OKDDaI05LE1G_95-_yh-35" edge="1">
          <mxGeometry width="50" height="50" relative="1" as="geometry">
            <mxPoint x="-300" y="50" as="sourcePoint" />
            <mxPoint x="-250" as="targetPoint" />
          </mxGeometry>
        </mxCell>
        <mxCell id="8OKDDaI05LE1G_95-_yh-34" value="" style="endArrow=classic;html=1;rounded=0;exitX=1;exitY=0.5;exitDx=0;exitDy=0;entryX=0;entryY=0.5;entryDx=0;entryDy=0;" parent="8OKDDaI05LE1G_95-_yh-6" source="8OKDDaI05LE1G_95-_yh-24" target="8OKDDaI05LE1G_95-_yh-33" edge="1">
          <mxGeometry width="50" height="50" relative="1" as="geometry">
            <mxPoint x="280" y="50" as="sourcePoint" />
            <mxPoint x="330" as="targetPoint" />
          </mxGeometry>
        </mxCell>
        <mxCell id="8OKDDaI05LE1G_95-_yh-26" value="" style="endArrow=classic;html=1;rounded=0;exitX=1;exitY=0.5;exitDx=0;exitDy=0;exitPerimeter=0;entryX=0;entryY=0.5;entryDx=0;entryDy=0;" parent="8OKDDaI05LE1G_95-_yh-6" source="8OKDDaI05LE1G_95-_yh-15" target="8OKDDaI05LE1G_95-_yh-24" edge="1">
          <mxGeometry width="50" height="50" relative="1" as="geometry">
            <mxPoint x="550" y="120" as="sourcePoint" />
            <mxPoint x="590" y="70" as="targetPoint" />
          </mxGeometry>
        </mxCell>
        <mxCell id="8OKDDaI05LE1G_95-_yh-21" value="" style="endArrow=classic;html=1;rounded=0;exitX=0.5;exitY=1;exitDx=0;exitDy=0;entryX=0.5;entryY=0;entryDx=0;entryDy=0;entryPerimeter=0;" parent="8OKDDaI05LE1G_95-_yh-1" source="8OKDDaI05LE1G_95-_yh-19" target="8OKDDaI05LE1G_95-_yh-15" edge="1">
          <mxGeometry width="50" height="50" relative="1" as="geometry">
            <mxPoint x="170" y="260" as="sourcePoint" />
            <mxPoint x="240" y="190" as="targetPoint" />
          </mxGeometry>
        </mxCell>
        <mxCell id="8OKDDaI05LE1G_95-_yh-50" value="" style="endArrow=classic;html=1;rounded=0;exitX=0.5;exitY=1;exitDx=0;exitDy=0;" parent="8OKDDaI05LE1G_95-_yh-1" source="8OKDDaI05LE1G_95-_yh-49" target="8OKDDaI05LE1G_95-_yh-24" edge="1">
          <mxGeometry width="50" height="50" relative="1" as="geometry">
            <mxPoint x="600" y="320" as="sourcePoint" />
            <mxPoint x="650" y="270" as="targetPoint" />
          </mxGeometry>
        </mxCell>
      </root>
    </mxGraphModel>
  </diagram>
</mxfile>
